<?xml version="1.0" encoding="UTF-8"?>
<svg xmlns="http://www.w3.org/2000/svg" viewBox="0 0 504 460.92">
  <defs>
    <style>
      .cls-1 {
        fill: #f89721;
      }

      .cls-2 {
        fill: #ffeecb;
      }

      .cls-3 {
        fill: #6bbe45;
      }
    </style>
  </defs>
  <g id="Layer_3">
    <path class="cls-3" d="M272.37,3.62h12.76c6.67,0,12.08,5.41,12.08,12.08v86.71c0,2.8-2.27,5.07-5.07,5.07h-19.77c-2.8,0-5.07-2.27-5.07-5.07V8.7c0-2.8,2.27-5.07,5.07-5.07Z" transform="translate(10.04 148.57) rotate(-30)"/>
  </g>
  <g id="Layer_2">
    <circle class="cls-1" cx="289.86" cy="239.23" r="214.14"/>
    <circle class="cls-2" cx="289.86" cy="239.23" r="190.27"/>
  </g>
  <g id="Layer_5">
    <path class="cls-1" d="M316.71,399.13c.74,7.36-.33,11.66-5.2,14.36-6.56,3.63-13.9,5.32-21.2,5.1-7.63-.23-15.22-2.56-21.82-6.96-4.5-2.99-5.02-6.98-4.24-13.83l23.4-122.25c.78-2.02,3.65-2,4.44.04l24.63,123.54Z"/>
    <path class="cls-1" d="M393.06,364.28c4.32,6,5.55,10.27,2.68,15.04-3.87,6.43-9.38,11.56-15.81,15.01s-14.46,5.39-22.38,4.89c-5.4-.34-7.84-3.53-10.58-9.86l-40.86-117.57c-.33-2.14,2.16-3.56,3.86-2.19l83.1,94.68Z"/>
    <path class="cls-1" d="M441.76,295.93c6.75,3.04,9.94,6.12,9.84,11.69-.14,7.5-2.34,14.7-6.19,20.91-4.02,6.49-9.83,11.9-16.94,15.42-4.84,2.4-8.55.86-14.1-3.25l-94.17-81.39c-1.36-1.69.1-4.16,2.25-3.83l119.31,40.45Z"/>
    <path class="cls-1" d="M449.75,212.38c7.36-.74,11.66.33,14.36,5.2,3.63,6.56,5.32,13.9,5.1,21.2-.23,7.63-2.56,15.22-6.96,21.82-2.99,4.5-6.98,5.02-13.83,4.24l-122.25-23.4c-2.02-.78-2-3.65.04-4.44l123.54-24.63Z"/>
    <path class="cls-1" d="M414.9,136.03c6-4.32,10.27-5.55,15.04-2.68,6.43,3.87,11.56,9.38,15.01,15.81s5.39,14.46,4.89,22.38c-.34,5.4-3.53,7.84-9.86,10.58l-117.57,40.86c-2.14.33-3.56-2.16-2.19-3.86l94.68-83.1Z"/>
    <path class="cls-1" d="M346.55,87.33c3.04-6.75,6.12-9.94,11.69-9.84,7.5.14,14.7,2.34,20.91,6.19s11.9,9.83,15.42,16.94c2.4,4.84.86,8.55-3.25,14.1l-81.39,94.17c-1.69,1.36-4.16-.1-3.83-2.25l40.45-119.31Z"/>
    <path class="cls-1" d="M263,79.33c-.74-7.36.33-11.66,5.2-14.36,6.56-3.63,13.9-5.32,21.2-5.1,7.63.23,15.22,2.56,21.82,6.96,4.5,2.99,5.02,6.98,4.24,13.83l-23.4,122.25c-.78,2.02-3.65,2-4.44-.04l-24.63-123.54Z"/>
    <path class="cls-1" d="M186.65,114.18c-4.32-6-5.55-10.27-2.68-15.04,3.87-6.43,9.38-11.56,15.81-15.01,6.73-3.61,14.46-5.39,22.38-4.89,5.4.34,7.84,3.53,10.58,9.86l40.86,117.57c.33,2.14-2.16,3.56-3.86,2.19l-83.1-94.68Z"/>
    <path class="cls-1" d="M137.95,182.54c-6.75-3.04-9.94-6.12-9.84-11.69.14-7.5,2.34-14.7,6.19-20.91,4.02-6.49,9.83-11.9,16.94-15.42,4.84-2.4,8.55-.86,14.1,3.25l94.17,81.39c1.36,1.69-.1,4.16-2.25,3.83l-119.31-40.45Z"/>
    <path class="cls-1" d="M129.96,266.09c-7.36.74-11.66-.33-14.36-5.2-3.63-6.56-5.32-13.9-5.1-21.2.23-7.63,2.56-15.22,6.96-21.82,2.99-4.5,6.98-5.02,13.83-4.24l122.25,23.4c2.02.78,2,3.65-.04,4.44l-123.54,24.63Z"/>
    <path class="cls-1" d="M164.81,342.44c-6,4.32-10.27,5.55-15.04,2.68-6.43-3.87-11.56-9.38-15.01-15.81-3.61-6.73-5.39-14.46-4.89-22.38.34-5.4,3.53-7.84,9.86-10.58l117.57-40.86c2.14-.33,3.56,2.16,2.19,3.86l-94.68,83.1Z"/>
    <path class="cls-1" d="M233.16,391.14c-3.04,6.75-6.12,9.94-11.69,9.84-7.5-.14-14.7-2.34-20.91-6.19-6.49-4.02-11.9-9.83-15.42-16.94-2.4-4.84-.86-8.55,3.25-14.1l81.39-94.17c1.69-1.36,4.16.1,3.83,2.25l-40.45,119.31Z"/>
  </g>
  <g id="Layer_7">
    <polygon class="cls-3" points="405.19 91.19 267.99 236.28 286.14 251.51 405.19 91.19"/>
    <polygon class="cls-3" points="379.36 316.88 300.42 232.27 286.14 251.51 379.36 316.88"/>
  </g>
  <g id="Layer_4">
    <path class="cls-3" d="M265.05,11.04c-58.86-12.53-113.24,16.6-113.24,16.6-13.32,7.13-57.92,31.8-79.76,81.68-9.45,21.59-3.2,21.79-13.31,46.03C36.15,209.55,0,244.09,0,244.09c.99,1.71,15.97.38,20.73,0,86.29-7.09,88.91-5.71,137.31-21.68,31.15-10.28,34.19-11.19,56.86-30.56,18.87-16.12,26.11-37.25,34.14-61.55,20.01-60.57,14.42-46.36,24.7-74.37,5.89-16.05,15.93-19.76,16.11-21.93.13-1.54-55.03,21.44-105.76,59.53-59.14,44.41-88.34,95.68-91.69,93.34-2.04-1.42,8.47-16.69,23.51-38.32C177,60.69,270.64,14.17,270.64,14.17c-.84-2.05-3.58-2.7-5.59-3.13Z"/>
  </g>
</svg>