<?xml version="1.0" encoding="UTF-8"?>
<svg xmlns="http://www.w3.org/2000/svg" viewBox="0 0 494.18 281.35">
  <defs>
    <style>
      .cls-1 {
        fill: #f89721;
      }

      .cls-2 {
        fill: #ffeecb;
      }

      .cls-3 {
        fill: #127b3e;
      }

      .cls-4 {
        fill: #6bbe45;
      }
    </style>
  </defs>
  <g id="Layer_1">
    <path class="cls-3" d="M100.88,133.2v18.8c-7.18.55-11.44.82-12.78.82-18.44,0-27.69-8.06-27.75-24.19-4.56.24-7.33.37-8.31.37-16.68,0-29.52-6.13-38.53-18.4C4.5,98.34,0,82.87,0,64.18S4.64,30.59,13.92,18.35C23.2,6.12,36.24,0,53.04,0c12.24,0,21.97,2.86,29.21,8.58,7.24,5.72,13.01,13.24,17.3,22.55,4.29,9.31,6.43,20.24,6.43,32.77,0,26.72-8.85,45.83-26.57,57.33-2.8,1.83-4.2,3.41-4.2,4.75,0,2.13.93,3.96,2.79,5.48,1.85,1.52,4.39,2.28,7.62,2.28,2.19,0,5.45-.12,9.77-.37,1.22-.06,3.05-.12,5.48-.18ZM52.4,110.19c19.48,0,29.21-15.34,29.21-46.01,0-16.31-2.6-28.08-7.8-35.29-5.21-7.21-12.07-10.82-20.59-10.82-19.29,0-28.94,15.76-28.94,47.29,0,29.89,9.37,44.83,28.12,44.83Z"/>
    <path class="cls-3" d="M212.44,1.92v80.06c0,10.83-1.22,19.17-3.65,25.01-2.43,5.84-7.14,10.88-14.1,15.11-6.97,4.23-15.48,6.35-25.52,6.35s-18.52-1.83-25.06-5.48c-6.55-3.65-11.25-8.66-14.11-15.02-2.86-6.36-4.29-14.47-4.29-24.33V1.92h22.91v80.06c0,10.96,2.3,18.15,6.89,21.59s9.94,5.16,16.02,5.16c7,0,12.6-1.84,16.8-5.52,4.2-3.68,6.3-10.76,6.3-21.23V1.92h17.8Z"/>
    <path class="cls-3" d="M260.56,126.53h-22.46V1.92h22.46v124.62Z"/>
    <path class="cls-3" d="M357.6,83.26l20.82,2.28c-1.34,12.48-6.16,22.75-14.47,30.81-8.31,8.06-19.22,12.1-32.73,12.1-11.38,0-20.62-2.86-27.71-8.58-7.09-5.72-12.56-13.48-16.39-23.28-3.84-9.8-5.75-20.6-5.75-32.41,0-18.99,4.5-34.43,13.51-46.33,9.01-11.9,21.39-17.85,37.16-17.85,12.35,0,22.64,3.81,30.85,11.41,8.22,7.61,13.39,18.5,15.52,32.68l-20.82,2.19c-3.84-18.81-12.3-28.21-25.38-28.21-8.4,0-14.93,3.91-19.58,11.73-4.66,7.82-6.98,19.16-6.98,34.01s2.49,26.49,7.49,34.19c4.99,7.7,11.6,11.55,19.81,11.55,6.57,0,12.17-2.58,16.8-7.76,4.63-5.17,7.24-11.35,7.85-18.53Z"/>
    <path class="cls-3" d="M494.18,126.53h-25.1l-26.29-63.45-24.1,31.95v31.5h-22.46V1.92h22.46v65.46c2.86-4.44,4.93-7.51,6.21-9.22L466.25,1.92h22.73l-29.58,40.99,34.78,83.63Z"/>
    <path class="cls-3" d="M20.08,249.33l21.82-4.66c2.62,12.36,12.66,18.53,30.13,18.53,7.97,0,14.11-1.58,18.4-4.75,4.29-3.16,6.44-7.09,6.44-11.78,0-3.41-.97-6.56-2.92-9.45-1.95-2.89-6.12-5.16-12.51-6.8l-23.83-6.21c-8.16-2.13-14.18-4.55-18.08-7.26-3.9-2.71-7.02-6.53-9.36-11.46s-3.52-10.19-3.52-15.8c0-11.14,4.14-20.07,12.42-26.79,8.28-6.72,18.87-10.09,31.77-10.09,10.71,0,20.28,2.35,28.71,7.03,8.43,4.69,13.8,11.32,16.11,19.9l-21.36,5.3c-3.29-9.43-10.96-14.15-23.01-14.15-7,0-12.34,1.46-16.02,4.38-3.68,2.92-5.52,6.64-5.52,11.14,0,7.12,5.78,12.11,17.35,14.97l21.18,5.3c12.84,3.23,21.46,7.99,25.84,14.29,4.38,6.3,6.57,13.25,6.57,20.86,0,12.23-4.61,21.86-13.83,28.89-9.22,7.03-21.16,10.55-35.83,10.55-12.36,0-23.18-2.59-32.46-7.76-9.28-5.17-15.44-13.24-18.49-24.19Z"/>
    <path class="cls-3" d="M232.44,279.36h-22.46v-54.14h-47.57v54.14h-22.46v-124.62h22.46v51.21h47.57v-51.21h22.46v124.62Z"/>
    <path class="cls-3" d="M402.61,279.36h-22.46v-124.62h51.04c14.55,0,25.33,3.67,32.36,11,7.03,7.34,10.54,15.99,10.54,25.97,0,11.38-3.8,20.6-11.41,27.66-7.61,7.06-17.25,10.59-28.94,10.59h-31.13v49.39ZM402.61,210.71h26.57c6.94,0,12.24-1.7,15.89-5.11,3.65-3.41,5.48-7.94,5.48-13.6,0-5.11-1.69-9.49-5.07-13.15-3.38-3.65-9.48-5.48-18.3-5.48h-24.56v37.34Z"/>
  </g>
  <g id="Layer_2">
    <g>
      <path class="cls-4" d="M302.11,148.66h6.27c.99,0,1.8.81,1.8,1.8v28.09c0,.42-.34.76-.76.76h-7.32c-.42,0-.76-.34-.76-.76v-29.13c0-.42.34-.76.76-.76Z" transform="translate(-41.03 174.85) rotate(-30)"/>
      <circle class="cls-1" cx="308.01" cy="218.17" r="63.18"/>
      <circle class="cls-2" cx="308.01" cy="218.17" r="56.13"/>
      <path class="cls-1" d="M315.93,265.34c.22,2.17-.1,3.44-1.53,4.24-1.94,1.07-4.1,1.57-6.25,1.5-2.25-.07-4.49-.76-6.44-2.05-1.33-.88-1.48-2.06-1.25-4.08l6.9-36.07c.23-.6,1.08-.59,1.31.01l7.27,36.45Z"/>
      <path class="cls-1" d="M338.45,255.06c1.28,1.77,1.64,3.03.79,4.44-1.14,1.9-2.77,3.41-4.66,4.43s-4.27,1.59-6.6,1.44c-1.59-.1-2.31-1.04-3.12-2.91l-12.06-34.68c-.1-.63.64-1.05,1.14-.65l24.52,27.93Z"/>
      <path class="cls-1" d="M352.82,234.9c1.99.9,2.93,1.8,2.9,3.45-.04,2.21-.69,4.34-1.82,6.17-1.19,1.92-2.9,3.51-5,4.55-1.43.71-2.52.25-4.16-.96l-27.78-24.01c-.4-.5.03-1.23.66-1.13l35.2,11.93Z"/>
      <path class="cls-1" d="M355.18,210.25c2.17-.22,3.44.1,4.24,1.53,1.07,1.94,1.57,4.1,1.5,6.25-.07,2.25-.76,4.49-2.05,6.44-.88,1.33-2.06,1.48-4.08,1.25l-36.07-6.9c-.6-.23-.59-1.08.01-1.31l36.45-7.27Z"/>
      <path class="cls-1" d="M344.9,187.72c1.77-1.28,3.03-1.64,4.44-.79,1.9,1.14,3.41,2.77,4.43,4.66s1.59,4.27,1.44,6.6c-.1,1.59-1.04,2.31-2.91,3.12l-34.68,12.06c-.63.1-1.05-.64-.65-1.14l27.93-24.52Z"/>
      <path class="cls-1" d="M324.73,173.36c.9-1.99,1.8-2.93,3.45-2.9,2.21.04,4.34.69,6.17,1.82,1.92,1.19,3.51,2.9,4.55,5,.71,1.43.25,2.52-.96,4.16l-24.01,27.78c-.5.4-1.23-.03-1.13-.66l11.93-35.2Z"/>
      <path class="cls-1" d="M300.08,171c-.22-2.17.1-3.44,1.53-4.24,1.94-1.07,4.1-1.57,6.25-1.5,2.25.07,4.49.76,6.44,2.05,1.33.88,1.48,2.06,1.25,4.08l-6.9,36.07c-.23.6-1.08.59-1.31-.01l-7.27-36.45Z"/>
      <path class="cls-1" d="M277.56,181.28c-1.28-1.77-1.64-3.03-.79-4.44,1.14-1.9,2.77-3.41,4.66-4.43,1.98-1.07,4.27-1.59,6.6-1.44,1.59.1,2.31,1.04,3.12,2.91l12.06,34.68c.1.63-.64,1.05-1.14.65l-24.52-27.93Z"/>
      <path class="cls-1" d="M263.19,201.45c-1.99-.9-2.93-1.8-2.9-3.45.04-2.21.69-4.34,1.82-6.17s2.9-3.51,5-4.55c1.43-.71,2.52-.25,4.16.96l27.78,24.01c.4.5-.03,1.23-.66,1.13l-35.2-11.93Z"/>
      <path class="cls-1" d="M260.83,226.09c-2.17.22-3.44-.1-4.24-1.53-1.07-1.94-1.57-4.1-1.5-6.25.07-2.25.76-4.49,2.05-6.44.88-1.33,2.06-1.48,4.08-1.25l36.07,6.9c.6.23.59,1.08-.01,1.31l-36.45,7.27Z"/>
      <path class="cls-1" d="M271.11,248.62c-1.77,1.28-3.03,1.64-4.44.79-1.9-1.14-3.41-2.77-4.43-4.66-1.07-1.98-1.59-4.27-1.44-6.6.1-1.59,1.04-2.31,2.91-3.12l34.68-12.06c.63-.1,1.05.64.65,1.14l-27.93,24.52Z"/>
      <path class="cls-1" d="M291.28,262.99c-.9,1.99-1.8,2.93-3.45,2.9-2.21-.04-4.34-.69-6.17-1.82-1.92-1.19-3.51-2.9-4.55-5-.71-1.43-.25-2.52.96-4.16l24.01-27.78c.5-.4,1.23.03,1.13.66l-11.93,35.2Z"/>
      <polygon class="cls-4" points="342.03 174.5 301.55 217.3 306.91 221.79 342.03 174.5"/>
      <polygon class="cls-4" points="334.41 241.08 311.12 216.12 306.91 221.79 334.41 241.08"/>
      <path class="cls-4" d="M300.69,150.85c-17.36-3.7-33.41,4.9-33.41,4.9-3.93,2.1-17.09,9.38-23.53,24.1-2.79,6.37-.95,6.43-3.93,13.58-6.66,15.99-17.33,26.18-17.33,26.18.29.5,4.71.11,6.11,0,25.46-2.09,26.23-1.69,40.51-6.4,9.19-3.03,10.09-3.3,16.78-9.02,5.57-4.76,7.7-10.99,10.07-18.16,5.9-17.87,4.25-13.68,7.29-21.94,1.74-4.74,4.7-5.83,4.75-6.47.04-.45-16.24,6.33-31.2,17.56-17.45,13.1-26.06,28.23-27.05,27.54-.6-.42,2.5-4.92,6.94-11.3,18.02-25.92,45.65-39.64,45.65-39.64-.25-.6-1.06-.8-1.65-.92Z"/>
    </g>
  </g>
</svg>