<?xml version="1.0" encoding="UTF-8"?>
<svg xmlns="http://www.w3.org/2000/svg" viewBox="0 0 1200.5 801">
  <defs>
    <style>
      .cls-1 {
        letter-spacing: 0em;
      }

      .cls-2 {
        fill: #fff;
        stroke: #000;
        stroke-miterlimit: 10;
      }

      .cls-3 {
        font-family: FranklinGothic-Medium, 'Franklin Gothic Medium';
        font-size: 24px;
        font-weight: 500;
      }

      .cls-4 {
        opacity: .63;
      }

      .cls-5 {
        letter-spacing: -.02em;
      }

      .cls-6 {
        letter-spacing: -.01em;
      }

      .cls-7 {
        letter-spacing: 0em;
      }

      .cls-8 {
        letter-spacing: -.02em;
      }
    </style>
  </defs>
  <g id="Layer_2">
    <path class="cls-2" d="M0,.5h1134.11c36.39,0,65.89,20.17,65.89,45.06v709.88c0,24.89-29.5,45.06-65.89,45.06H0"/>
  </g>
  <g id="photo_xA0_Image">
    <path class="cls-2" d="M0,166h437.58c14.04,0,25.42,11.83,25.42,26.42v416.17c0,14.59-11.38,26.42-25.42,26.42H0"/>
    <g>
      <path class="cls-4" d="M72.77,273.55h-7.19v-31.41h-9.88v-5.74h26.95v5.74h-9.88v31.41Z"/>
      <path class="cls-4" d="M114.31,273.55h-6.7v-16.14h-14.18v16.14h-6.7v-37.15h6.7v15.27h14.18v-15.27h6.7v37.15Z"/>
      <path class="cls-4" d="M151.62,273.55h-7.16l-2.97-8.85h-14.29l-2.91,8.85h-5.72l12.33-37.15h8.25l12.47,37.15ZM139.7,259.35l-5.42-16.58-5.42,16.58h10.83Z"/>
      <path class="cls-4" d="M184.15,273.55h-6.51l-14.1-23.73-1.06-1.77c-.22-.36-.55-.93-1.01-1.71v27.22h-5.39v-37.15h7.4l13.01,21.88c.11.18.9,1.52,2.37,4v-25.89h5.28v37.15Z"/>
      <path class="cls-4" d="M221.52,273.55h-7.49l-7.84-18.92-7.19,9.53v9.39h-6.7v-37.15h6.7v19.52c.85-1.32,1.47-2.24,1.85-2.75l12.33-16.77h6.78l-8.82,12.22,10.37,24.93Z"/>
      <path class="cls-4" d="M233.42,273.55h-6.89v-37.15h23.49v5.74h-16.6v10.15h13.07v5.58h-13.07v15.68Z"/>
      <path class="cls-4" d="M280.34,236.4v23.87c0,3.23-.36,5.72-1.09,7.46s-2.13,3.24-4.21,4.5-4.61,1.89-7.61,1.89-5.52-.54-7.47-1.63-3.35-2.58-4.21-4.48-1.28-4.31-1.28-7.25v-24.36h6.83v23.87c0,3.27.69,5.41,2.06,6.44s2.96,1.54,4.78,1.54c2.09,0,3.76-.55,5.01-1.65s1.88-3.21,1.88-6.33v-23.87h5.31Z"/>
      <path class="cls-4" d="M310.85,273.55h-22.86v-37.15h7.05v31.08h15.81v6.07Z"/>
      <path class="cls-4" d="M336.6,273.55h-6.89v-37.15h23.49v5.74h-16.6v10.15h13.07v5.58h-13.07v15.68Z"/>
      <path class="cls-4" d="M370.65,274.13c-4.94,0-8.78-1.85-11.53-5.55s-4.12-8.27-4.12-13.72,1.46-9.93,4.38-13.57,6.78-5.46,11.57-5.46,8.64,1.82,11.45,5.46,4.21,8.19,4.21,13.65c0,5.73-1.46,10.37-4.37,13.9s-6.77,5.29-11.58,5.29ZM370.71,268.74c2.41,0,4.45-1,6.12-2.99s2.5-5.62,2.5-10.86c0-4.26-.69-7.61-2.07-10.03s-3.52-3.63-6.42-3.63c-5.73,0-8.6,4.62-8.6,13.85,0,4.48.73,7.88,2.19,10.19s3.55,3.47,6.27,3.47Z"/>
      <path class="cls-4" d="M421.8,273.55h-7.08l-5.77-15.27h-9.42v15.27h-6.7v-37.15h16.11c4.48,0,7.78,1.01,9.88,3.03s3.16,4.64,3.16,7.85c0,4.77-2.23,8.06-6.7,9.85l6.51,16.41ZM399.53,252.92h8.33c2.41,0,4.21-.51,5.39-1.52s1.77-2.41,1.77-4.19c0-1.63-.58-2.95-1.74-3.96s-2.79-1.51-4.87-1.51h-8.87v11.19Z"/>
      <path class="cls-4" d="M150.26,331.49l6.51-1.39c.78,3.68,3.77,5.53,8.98,5.53,2.38,0,4.21-.47,5.48-1.42s1.92-2.11,1.92-3.51c0-1.02-.29-1.96-.87-2.82s-1.82-1.54-3.73-2.03l-7.1-1.85c-2.43-.64-4.23-1.36-5.39-2.16s-2.09-1.95-2.79-3.42-1.05-3.04-1.05-4.71c0-3.32,1.23-5.98,3.7-7.99s5.63-3.01,9.47-3.01c3.19,0,6.05.7,8.56,2.1s4.11,3.38,4.8,5.93l-6.37,1.58c-.98-2.81-3.27-4.22-6.86-4.22-2.09,0-3.68.44-4.78,1.31s-1.65,1.98-1.65,3.32c0,2.12,1.72,3.61,5.17,4.46l6.31,1.58c3.83.96,6.4,2.38,7.7,4.26s1.96,3.95,1.96,6.22c0,3.65-1.37,6.52-4.12,8.61s-6.31,3.14-10.68,3.14c-3.68,0-6.91-.77-9.68-2.31s-4.6-3.95-5.51-7.21Z"/>
      <path class="cls-4" d="M214.94,340.45h-7.16l-2.97-8.85h-14.29l-2.91,8.85h-5.72l12.33-37.15h8.25l12.47,37.15ZM203.01,326.24l-5.42-16.58-5.42,16.58h10.83Z"/>
      <path class="cls-4" d="M231.57,340.45h-6.8l-11.46-37.15h7.08l8.52,28.47,8.71-28.47h5.58l-11.62,37.15Z"/>
      <path class="cls-4" d="M254.1,340.45h-6.7v-37.15h6.7v37.15Z"/>
      <path class="cls-4" d="M290.33,340.45h-6.51l-14.1-23.73-1.06-1.77c-.22-.36-.55-.93-1.01-1.71v27.22h-5.39v-37.15h7.4l13.01,21.88c.11.18.9,1.52,2.37,4v-25.89h5.28v37.15Z"/>
      <path class="cls-4" d="M326.7,321.45v19h-2.97l-2.04-5.01c-2.16,3.72-5.51,5.58-10.04,5.58-5.06,0-8.84-1.92-11.34-5.77s-3.74-8.3-3.74-13.36c0-5.35,1.39-9.88,4.18-13.6s6.68-5.57,11.69-5.57c3.74,0,6.81,1.08,9.23,3.25s3.94,4.87,4.57,8.1l-5.82,1.03c-1.09-4.54-3.69-6.8-7.81-6.8-2.63,0-4.78,1.07-6.44,3.21s-2.49,5.43-2.49,9.88c0,9.38,2.94,14.07,8.82,14.07,2.29,0,4.18-.79,5.68-2.37s2.25-3.67,2.25-6.26h-7.68v-5.39h13.96Z"/>
      <text class="cls-3"><tspan x="34.29" y="411.65">Easily b</tspan><tspan class="cls-7" x="112.31" y="411.65">r</tspan><tspan class="cls-1" x="120.13" y="411.65">o</tspan><tspan x="132.61" y="411.65">wse catalogs of local s</tspan><tspan class="cls-5" x="363.33" y="411.65">t</tspan><tspan x="370.63" y="411.65">ores </tspan><tspan class="cls-5" x="420.76" y="411.65">t</tspan><tspan x="428.06" y="411.65">o </tspan><tspan x="37.73" y="440.45">g</tspan><tspan class="cls-7" x="50.16" y="440.45">e</tspan><tspan x="62.61" y="440.45">t the best deals and s</tspan><tspan class="cls-6" x="282.86" y="440.45">a</tspan><tspan class="cls-1" x="295.54" y="440.45">v</tspan><tspan x="306" y="440.45">e big on </tspan><tspan class="cls-8" x="393.5" y="440.45">y</tspan><tspan x="403.72" y="440.45">our </tspan><tspan x="143.42" y="469.25">thanksgiving </tspan><tspan class="cls-1" x="280.07" y="469.25">f</tspan><tspan x="287.44" y="469.25">east</tspan></text>
    </g>
  </g>
</svg>